<?xml version="1.0" encoding="iso-8859-1"?>
<!-- Generator: Adobe Illustrator 18.1.1, SVG Export Plug-In . SVG Version: 6.00 Build 0)  -->
<svg version="1.1" id="Capa_1" xmlns="http://www.w3.org/2000/svg" xmlns:xlink="http://www.w3.org/1999/xlink" x="0px" y="0px"
	 viewBox="0 0 591.6 591.6" style="enable-background:new 0 0 591.6 591.6;" xml:space="preserve">
<g>
	<g>
		<path d="M295.8,0C132.6,0,0,132.6,0,295.8s132.6,295.8,295.8,295.8S591.6,459,591.6,295.8S459,0,295.8,0z M295.8,571.2
			c-151.776,0-275.4-123.624-275.4-275.4S144.024,20.4,295.8,20.4s275.4,123.624,275.4,275.4S447.576,571.2,295.8,571.2z"/>
		<path d="M214.2,122.4c-28.152,0-51,22.848-51,51v244.8c0,28.152,22.848,51,51,51s51-22.848,51-51V173.4
			C265.2,145.248,242.352,122.4,214.2,122.4z M244.8,418.2c0,16.932-13.668,30.6-30.6,30.6s-30.6-13.668-30.6-30.6V173.4
			c0-16.932,13.668-30.6,30.6-30.6s30.6,13.668,30.6,30.6V418.2z"/>
		<path d="M377.4,122.4c-28.152,0-51,22.848-51,51v244.8c0,28.152,22.848,51,51,51s51-22.848,51-51V173.4
			C428.4,145.248,405.552,122.4,377.4,122.4z M408,418.2c0,16.932-13.668,30.6-30.6,30.6s-30.6-13.668-30.6-30.6V173.4
			c0-16.932,13.668-30.6,30.6-30.6s30.6,13.668,30.6,30.6V418.2z"/>
		<path d="M201.96,168.3c-2.856,0-5.1,2.244-5.1,5.1v244.8c0,2.856,2.244,5.1,5.1,5.1s5.1-2.244,5.1-5.1V173.4
			C207.06,170.544,204.816,168.3,201.96,168.3z"/>
		<path d="M365.16,168.3c-2.856,0-5.1,2.244-5.1,5.1v244.8c0,2.856,2.244,5.1,5.1,5.1s5.1-2.244,5.1-5.1V173.4
			C370.26,170.544,368.016,168.3,365.16,168.3z"/>
	</g>
</g>
<g>
</g>
<g>
</g>
<g>
</g>
<g>
</g>
<g>
</g>
<g>
</g>
<g>
</g>
<g>
</g>
<g>
</g>
<g>
</g>
<g>
</g>
<g>
</g>
<g>
</g>
<g>
</g>
<g>
</g>
</svg>
