<?xml version="1.0" encoding="iso-8859-1"?>
<!-- Generator: Adobe Illustrator 18.1.1, SVG Export Plug-In . SVG Version: 6.00 Build 0)  -->
<svg version="1.1" id="Capa_1" xmlns="http://www.w3.org/2000/svg" xmlns:xlink="http://www.w3.org/1999/xlink" x="0px" y="0px"
	 viewBox="0 0 591.6 591.6" style="enable-background:new 0 0 591.6 591.6;" xml:space="preserve">
<g>
	<g>
		<path d="M295.8,0C132.6,0,0,132.6,0,295.8s132.6,295.8,295.8,295.8S591.6,459,591.6,295.8S459,0,295.8,0z M295.8,571.2
			c-151.776,0-275.4-123.624-275.4-275.4S144.024,20.4,295.8,20.4s275.4,123.624,275.4,275.4S447.576,571.2,295.8,571.2z"/>
		<path d="M428.4,163.2H183.6c-5.712,0-10.2,4.488-10.2,10.2v244.8c0,5.712,4.488,10.2,10.2,10.2h244.8
			c5.712,0,10.2-4.488,10.2-10.2V173.4C438.6,167.688,434.112,163.2,428.4,163.2z M418.2,408H193.8V183.6h224.4V408z"/>
		<path d="M212.16,309.06c2.856,0,5.1-2.244,5.1-5.1v-96.9h96.9c2.856,0,5.1-2.244,5.1-5.1s-2.244-5.1-5.1-5.1h-102
			c-2.856,0-5.1,2.244-5.1,5.1v102C207.06,306.816,209.304,309.06,212.16,309.06z"/>
	</g>
</g>
<g>
</g>
<g>
</g>
<g>
</g>
<g>
</g>
<g>
</g>
<g>
</g>
<g>
</g>
<g>
</g>
<g>
</g>
<g>
</g>
<g>
</g>
<g>
</g>
<g>
</g>
<g>
</g>
<g>
</g>
</svg>
